<mxfile host="65bd71144e">
    <diagram id="IeR1D-B6Rv1Ts3FO9XRu" name="Page-1">
        <mxGraphModel dx="1668" dy="801" grid="0" gridSize="10" guides="1" tooltips="1" connect="1" arrows="1" fold="1" page="1" pageScale="1" pageWidth="1169" pageHeight="827" background="light-dark(#000000,#000033)" math="0" shadow="0">
            <root>
                <mxCell id="0"/>
                <mxCell id="1" parent="0"/>
                <mxCell id="73" value="" style="rounded=1;whiteSpace=wrap;html=1;fontFamily=Helvetica;fontSize=16;fontColor=default;labelBackgroundColor=default;arcSize=4;" vertex="1" parent="1">
                    <mxGeometry x="272" y="291" width="880" height="937" as="geometry"/>
                </mxCell>
                <mxCell id="3" value="" style="sketch=0;aspect=fixed;pointerEvents=1;shadow=0;dashed=0;html=1;strokeColor=#6F0000;labelPosition=center;verticalLabelPosition=bottom;verticalAlign=top;align=center;fillColor=#A20025;shape=mxgraph.mscae.enterprise.workstation_client;fontColor=#ffffff;" parent="1" vertex="1">
                    <mxGeometry x="38" y="512" width="47" height="47" as="geometry"/>
                </mxCell>
                <mxCell id="4" value="&lt;font style=&quot;color: light-dark(rgb(0, 0, 0), rgb(255, 173, 205));&quot;&gt;Frontend&lt;/font&gt;" style="text;html=1;align=center;verticalAlign=middle;whiteSpace=wrap;rounded=0;fillColor=none;strokeColor=none;" parent="1" vertex="1">
                    <mxGeometry x="31.5" y="555" width="60" height="30" as="geometry"/>
                </mxCell>
                <mxCell id="6" value="&lt;h1&gt;&lt;font style=&quot;font-size: 19px;&quot;&gt;Server&lt;/font&gt;&lt;/h1&gt;" style="text;html=1;align=center;verticalAlign=middle;whiteSpace=wrap;rounded=0;" parent="1" vertex="1">
                    <mxGeometry x="285.5" y="263" width="60" height="30" as="geometry"/>
                </mxCell>
                <mxCell id="7" value="" style="shape=flexArrow;endArrow=classic;startArrow=classic;html=1;arcSize=50;entryX=0.057;entryY=0.314;entryDx=0;entryDy=0;entryPerimeter=0;" parent="1" edge="1">
                    <mxGeometry width="100" height="100" relative="1" as="geometry">
                        <mxPoint x="101" y="542.99" as="sourcePoint"/>
                        <mxPoint x="229.09300000000007" y="543.2339999999999" as="targetPoint"/>
                        <Array as="points"/>
                    </mxGeometry>
                </mxCell>
                <mxCell id="61" value="&lt;font style=&quot;font-size: 12px;&quot;&gt;Web API&lt;/font&gt;" style="edgeLabel;html=1;align=center;verticalAlign=middle;resizable=0;points=[];fontFamily=Helvetica;fontSize=16;fontColor=default;labelBackgroundColor=default;" vertex="1" connectable="0" parent="7">
                    <mxGeometry x="-0.0507" y="-5" relative="1" as="geometry">
                        <mxPoint as="offset"/>
                    </mxGeometry>
                </mxCell>
                <mxCell id="9" value="" style="rounded=1;whiteSpace=wrap;html=1;strokeWidth=0;arcSize=7;" vertex="1" parent="1">
                    <mxGeometry x="434" y="310" width="322" height="892" as="geometry"/>
                </mxCell>
                <mxCell id="10" value="Microservices" style="text;html=1;align=center;verticalAlign=middle;whiteSpace=wrap;rounded=0;fontSize=19;" vertex="1" parent="1">
                    <mxGeometry x="473" y="307" width="60" height="30" as="geometry"/>
                </mxCell>
                <mxCell id="14" value="&lt;font style=&quot;font-size: 29px;&quot;&gt;AUTH&lt;/font&gt;" style="rounded=1;whiteSpace=wrap;html=1;" vertex="1" parent="1">
                    <mxGeometry x="533" y="363" width="120" height="60" as="geometry"/>
                </mxCell>
                <mxCell id="15" value="&lt;span style=&quot;font-size: 29px;&quot;&gt;PROFILE&lt;/span&gt;" style="rounded=1;whiteSpace=wrap;html=1;" vertex="1" parent="1">
                    <mxGeometry x="520" y="511" width="129" height="60" as="geometry"/>
                </mxCell>
                <mxCell id="16" value="&lt;span style=&quot;font-size: 29px;&quot;&gt;CHAT&lt;/span&gt;" style="rounded=1;whiteSpace=wrap;html=1;" vertex="1" parent="1">
                    <mxGeometry x="527" y="661" width="120" height="60" as="geometry"/>
                </mxCell>
                <mxCell id="17" value="&lt;span style=&quot;font-size: 29px;&quot;&gt;PONG&lt;/span&gt;" style="rounded=1;whiteSpace=wrap;html=1;" vertex="1" parent="1">
                    <mxGeometry x="528.5" y="812.96" width="117" height="60" as="geometry"/>
                </mxCell>
                <mxCell id="23" value="" style="endArrow=classic;startArrow=classic;html=1;entryX=0;entryY=0.5;entryDx=0;entryDy=0;entryPerimeter=0;exitX=1;exitY=0.5;exitDx=0;exitDy=0;" edge="1" parent="1" source="14">
                    <mxGeometry width="50" height="50" relative="1" as="geometry">
                        <mxPoint x="716" y="408" as="sourcePoint"/>
                        <mxPoint x="940" y="393" as="targetPoint"/>
                    </mxGeometry>
                </mxCell>
                <mxCell id="24" value="" style="endArrow=classic;startArrow=classic;html=1;exitX=1;exitY=0.5;exitDx=0;exitDy=0;entryX=0;entryY=0.5;entryDx=0;entryDy=0;entryPerimeter=0;" edge="1" parent="1" source="15">
                    <mxGeometry width="50" height="50" relative="1" as="geometry">
                        <mxPoint x="854" y="642" as="sourcePoint"/>
                        <mxPoint x="940" y="535.5" as="targetPoint"/>
                    </mxGeometry>
                </mxCell>
                <mxCell id="25" value="" style="endArrow=classic;startArrow=classic;html=1;exitX=1;exitY=0.5;exitDx=0;exitDy=0;entryX=0;entryY=0.5;entryDx=0;entryDy=0;entryPerimeter=0;" edge="1" parent="1" source="16">
                    <mxGeometry width="50" height="50" relative="1" as="geometry">
                        <mxPoint x="752" y="730" as="sourcePoint"/>
                        <mxPoint x="940" y="688.5" as="targetPoint"/>
                    </mxGeometry>
                </mxCell>
                <mxCell id="26" value="" style="endArrow=classic;startArrow=classic;html=1;exitX=1;exitY=0.5;exitDx=0;exitDy=0;entryX=0;entryY=0.5;entryDx=0;entryDy=0;entryPerimeter=0;" edge="1" parent="1" source="17">
                    <mxGeometry width="50" height="50" relative="1" as="geometry">
                        <mxPoint x="773" y="850" as="sourcePoint"/>
                        <mxPoint x="940" y="841" as="targetPoint"/>
                    </mxGeometry>
                </mxCell>
                <mxCell id="30" value="" style="endArrow=none;html=1;fontSize=16;strokeWidth=3.937;" edge="1" parent="1">
                    <mxGeometry width="50" height="50" relative="1" as="geometry">
                        <mxPoint x="309" y="541" as="sourcePoint"/>
                        <mxPoint x="518" y="541" as="targetPoint"/>
                    </mxGeometry>
                </mxCell>
                <mxCell id="31" value="" style="endArrow=none;html=1;fontSize=16;strokeWidth=3.937;" edge="1" parent="1">
                    <mxGeometry width="50" height="50" relative="1" as="geometry">
                        <mxPoint x="398" y="689" as="sourcePoint"/>
                        <mxPoint x="523" y="690.33" as="targetPoint"/>
                    </mxGeometry>
                </mxCell>
                <mxCell id="32" value="" style="endArrow=none;html=1;fontSize=16;strokeWidth=3.937;exitX=0.67;exitY=0.594;exitDx=0;exitDy=0;exitPerimeter=0;entryX=0;entryY=0.5;entryDx=0;entryDy=0;" edge="1" parent="1" source="40" target="17">
                    <mxGeometry width="50" height="50" relative="1" as="geometry">
                        <mxPoint x="389" y="840" as="sourcePoint"/>
                        <mxPoint x="473" y="840.33" as="targetPoint"/>
                    </mxGeometry>
                </mxCell>
                <mxCell id="33" value="" style="endArrow=none;html=1;fontSize=16;strokeWidth=3.937;entryX=0;entryY=0.5;entryDx=0;entryDy=0;" edge="1" parent="1" target="14">
                    <mxGeometry width="50" height="50" relative="1" as="geometry">
                        <mxPoint x="393" y="393.17" as="sourcePoint"/>
                        <mxPoint x="521" y="392.83" as="targetPoint"/>
                    </mxGeometry>
                </mxCell>
                <mxCell id="36" value="Internal API network" style="text;html=1;align=center;verticalAlign=middle;whiteSpace=wrap;rounded=0;" vertex="1" parent="1">
                    <mxGeometry x="338" y="498" width="60" height="30" as="geometry"/>
                </mxCell>
                <mxCell id="37" value="&lt;span style=&quot;font-size: 29px;&quot;&gt;TOURNAMENTS&lt;/span&gt;" style="rounded=1;whiteSpace=wrap;html=1;" vertex="1" parent="1">
                    <mxGeometry x="480" y="961" width="226" height="60" as="geometry"/>
                </mxCell>
                <mxCell id="40" value="" style="rounded=0;whiteSpace=wrap;html=1;fontFamily=Helvetica;fontSize=16;fontColor=default;labelBackgroundColor=default;fillColor=light-dark(#FFFFFF,#FFFFFF);" vertex="1" parent="1">
                    <mxGeometry x="393" y="391" width="5" height="759" as="geometry"/>
                </mxCell>
                <mxCell id="41" value="" style="endArrow=none;html=1;rounded=1;strokeColor=default;strokeWidth=3.937;align=center;verticalAlign=middle;fontFamily=Helvetica;fontSize=16;fontColor=default;labelBackgroundColor=default;entryX=0;entryY=0.5;entryDx=0;entryDy=0;exitX=0.519;exitY=0.791;exitDx=0;exitDy=0;exitPerimeter=0;" edge="1" parent="1" source="40" target="37">
                    <mxGeometry width="50" height="50" relative="1" as="geometry">
                        <mxPoint x="413" y="990" as="sourcePoint"/>
                        <mxPoint x="456" y="980" as="targetPoint"/>
                    </mxGeometry>
                </mxCell>
                <mxCell id="42" value="" style="endArrow=classic;startArrow=classic;html=1;exitX=1;exitY=0.5;exitDx=0;exitDy=0;entryX=0;entryY=0.5;entryDx=0;entryDy=0;entryPerimeter=0;" edge="1" parent="1">
                    <mxGeometry width="50" height="50" relative="1" as="geometry">
                        <mxPoint x="706" y="992" as="sourcePoint"/>
                        <mxPoint x="940" y="994" as="targetPoint"/>
                    </mxGeometry>
                </mxCell>
                <mxCell id="45" value="auth_db" style="html=1;verticalLabelPosition=bottom;align=center;labelBackgroundColor=#ffffff;verticalAlign=top;strokeWidth=2;strokeColor=#0080F0;shadow=0;dashed=0;shape=mxgraph.ios7.icons.data;fontFamily=Helvetica;fontSize=16;fontColor=default;aspect=fixed;" vertex="1" parent="1">
                    <mxGeometry x="949" y="356.02" width="61" height="73.96" as="geometry"/>
                </mxCell>
                <mxCell id="46" value="user_db" style="html=1;verticalLabelPosition=bottom;align=center;labelBackgroundColor=#ffffff;verticalAlign=top;strokeWidth=2;strokeColor=#0080F0;shadow=0;dashed=0;shape=mxgraph.ios7.icons.data;fontFamily=Helvetica;fontSize=16;fontColor=default;aspect=fixed;" vertex="1" parent="1">
                    <mxGeometry x="949" y="498" width="61" height="73.96" as="geometry"/>
                </mxCell>
                <mxCell id="47" value="chat_db" style="html=1;verticalLabelPosition=bottom;align=center;labelBackgroundColor=#ffffff;verticalAlign=top;strokeWidth=2;strokeColor=#0080F0;shadow=0;dashed=0;shape=mxgraph.ios7.icons.data;fontFamily=Helvetica;fontSize=16;fontColor=default;aspect=fixed;" vertex="1" parent="1">
                    <mxGeometry x="949" y="640" width="61" height="73.96" as="geometry"/>
                </mxCell>
                <mxCell id="48" value="pong_db" style="html=1;verticalLabelPosition=bottom;align=center;labelBackgroundColor=#ffffff;verticalAlign=top;strokeWidth=2;strokeColor=#0080F0;shadow=0;dashed=0;shape=mxgraph.ios7.icons.data;fontFamily=Helvetica;fontSize=16;fontColor=default;aspect=fixed;" vertex="1" parent="1">
                    <mxGeometry x="951" y="799" width="61" height="73.96" as="geometry"/>
                </mxCell>
                <mxCell id="49" value="tournaments_db" style="html=1;verticalLabelPosition=bottom;align=center;labelBackgroundColor=#ffffff;verticalAlign=top;strokeWidth=2;strokeColor=#0080F0;shadow=0;dashed=0;shape=mxgraph.ios7.icons.data;fontFamily=Helvetica;fontSize=16;fontColor=default;aspect=fixed;" vertex="1" parent="1">
                    <mxGeometry x="949" y="947.04" width="61" height="73.96" as="geometry"/>
                </mxCell>
                <mxCell id="55" value="" style="sketch=0;html=1;verticalAlign=top;labelPosition=center;verticalLabelPosition=bottom;align=center;spacingTop=-6;fontSize=11;fontStyle=1;fontColor=#999999;shape=image;aspect=fixed;imageAspect=0;image=data:image/svg+xml,PHN2ZyB4bWxucz0iaHR0cDovL3d3dy53My5vcmcvMjAwMC9zdmciIGhlaWdodD0iMzY3LjgxODMyODg1NzQyMTkiIHZpZXdCb3g9IjcuMTA1NDI3MzU3NjAxMDAyZS0xNSAwIDM2Ni40MTAxODY3Njc1NzgxIDM2Ny44MTgzMjg4NTc0MjE5IiBwcmVzZXJ2ZUFzcGVjdFJhdGlvPSJ4TWlkWU1pZCBtZWV0IiB3aWR0aD0iMzY2LjQxMDE5Njc2NzU3OTEiIHZlcnNpb249IjEuMSIgaWQ9InN2Zzk4NyIgem9vbUFuZFBhbj0ibWFnbmlmeSI+JiN4YTsgIDxwYXRoIGQ9Im0gNDguMjUxOTYsMTExLjUzOTA2IGMgLTcuNjE4NjQsMmUtNCAtMTMuNzk0NzIsNi4xNzYyOCAtMTMuNzk0OTMsMTMuNzk0OTIgMi4xZS00LDcuNjE4NjQgNi4xNzYyOSwxMy43OTQ3MiAxMy43OTQ5MywxMy43OTQ5MiBoIDE0NS4xNDY5MiB2IC0yNy41ODk4NCB6IG0gMjM4LjYwODU5LDU3LjQ1MTE3IGggNjUuNzU0NjkgYyA3LjYxODY0LC0yLjFlLTQgMTMuNzk0NzEsLTYuMTc2MjggMTMuNzk0OTIsLTEzLjc5NDkyIC0yLjFlLTQsLTcuNjE4NjQgLTYuMTc2MjgsLTEzLjc5NDcxIC0xMy43OTQ5MiwtMTMuNzk0OTIgSCAyODQuODUwNiBaIE0gMTMuNzk0OTIsMTcwLjk3NDYxIEMgNi4xNzYyODAxLDE3MC45NzQ4MiAyLjEwMDkxOWUtNCwxNzcuMTUwODkgOS4xODk5MjFlLTgsMTg0Ljc2OTUzIC04LjY5OTA4MWUtNCwxOTIuMzg4OTMgNi4xNzU1MjAxLDE5OC41NjYxOSAxMy43OTQ5MiwxOTguNTY2NCBIIDE5My4zOTg4OCBWIDE3MC45NzQ2MSBaIE0gMjg0LjMwNzgsMjI3LjU2NjQgaCA2OC4zMDc0NCBjIDcuNjE4NjQsLTIuMWUtNCAxMy43OTQ3MSwtNi4xNzYyOCAxMy43OTQ5MiwtMTMuNzk0OTIgLTIuMWUtNCwtNy42MTg2NCAtNi4xNzYyOCwtMTMuNzk0NzEgLTEzLjc5NDkyLC0xMy43OTQ5MiBoIC02NS45MjE3OCB6IG0gLTIzNi4wNTU4NCwxLjY5NzI3IGMgLTcuNjE4NjQsMmUtNCAtMTMuNzk0NzIsNi4xNzYyOCAtMTMuNzk0OTMsMTMuNzk0OTIgMi4xZS00LDcuNjE4NjQgNi4xNzYyOSwxMy43OTQ3MiAxMy43OTQ5MywxMy43OTQ5MiBIIDE5My4zOTg4OCBWIDIyOS4yNjM2NyBaIE0gMTg5LjUyMTQ5LDAgYyAtMjQuNTc0MTEsMCAtNDkuMTY3MzcsMjAuMDU1MDcgLTU5LjQzNzUsNzUuMzczMDQgaCAzMC41ODAwNyBjIDQuNjE2MzMsLTI0LjE2MjA2IDE1LjM0ODk2LC00Ny41MjE0OCAyNy44NTM1MiwtNDcuNTIxNDggMTIuMTU4OCwwIDM5LjQ1ODk4LDU3LjQ1MDQ0IDM5LjQ1ODk4LDE2MC40MTQwNiAwLDY5LjkxNTEzIC0xOS41NzgwOSwxNTIuMTE1MjQgLTQxLjE3MTg3LDE1Mi4xMTUyMyAtMTUuMjY4ODEsMmUtNSAtMjEuMjE2NjgsLTI4LjMzMzU2IC0yNS40NDMzNiwtNDYuNzE4NzQgbCAtMzAuNDE0MDYsLTAuMDY4NCBjIDQuMjIwNzQsMjAuNTQwODcgMTYuOTA3NjgsNzQuMjI0NiA1Ny43MTI4OSw3NC4yMjQ2IDUzLjQzNjcyLDAgNjguOTEyMTEsLTExMS45OTMwNSA2OC45MTIxMSwtMTgwLjQ2Mjg5IEMgMjU3LjU3MjI3LDkzLjgwMDc2IDIzNi41ODM0LDAgMTg5LjUyMTQ5LDAgWiIgc3R5bGU9ImNvbG9yOiMwMDAwMDA7b3BhY2l0eToxO2ZpbGw6IzQyODVmNDtmaWxsLW9wYWNpdHk6MTtzdHJva2UtbGluZWNhcDpyb3VuZDstaW5rc2NhcGUtc3Ryb2tlOm5vbmUiLz4mI3hhOzwvc3ZnPg==;imageBackground=none;rotation=90;" vertex="1" parent="1">
                    <mxGeometry x="618" y="42" width="58" height="58" as="geometry"/>
                </mxCell>
                <mxCell id="56" value="" style="sketch=0;html=1;verticalAlign=top;labelPosition=center;verticalLabelPosition=bottom;align=center;spacingTop=-6;fontSize=11;fontStyle=1;fontColor=#999999;shape=image;aspect=fixed;imageAspect=0;image=data:image/svg+xml,PHN2ZyB4bWxucz0iaHR0cDovL3d3dy53My5vcmcvMjAwMC9zdmciIGhlaWdodD0iMzY3LjgxODMyODg1NzQyMTkiIHZpZXdCb3g9IjcuMTA1NDI3MzU3NjAxMDAyZS0xNSAwIDM2Ni40MTAxODY3Njc1NzgxIDM2Ny44MTgzMjg4NTc0MjE5IiBwcmVzZXJ2ZUFzcGVjdFJhdGlvPSJ4TWlkWU1pZCBtZWV0IiB3aWR0aD0iMzY2LjQxMDE5Njc2NzU3OTEiIHZlcnNpb249IjEuMSIgaWQ9InN2Zzk4NyIgem9vbUFuZFBhbj0ibWFnbmlmeSI+JiN4YTsgIDxwYXRoIGQ9Im0gNDguMjUxOTYsMTExLjUzOTA2IGMgLTcuNjE4NjQsMmUtNCAtMTMuNzk0NzIsNi4xNzYyOCAtMTMuNzk0OTMsMTMuNzk0OTIgMi4xZS00LDcuNjE4NjQgNi4xNzYyOSwxMy43OTQ3MiAxMy43OTQ5MywxMy43OTQ5MiBoIDE0NS4xNDY5MiB2IC0yNy41ODk4NCB6IG0gMjM4LjYwODU5LDU3LjQ1MTE3IGggNjUuNzU0NjkgYyA3LjYxODY0LC0yLjFlLTQgMTMuNzk0NzEsLTYuMTc2MjggMTMuNzk0OTIsLTEzLjc5NDkyIC0yLjFlLTQsLTcuNjE4NjQgLTYuMTc2MjgsLTEzLjc5NDcxIC0xMy43OTQ5MiwtMTMuNzk0OTIgSCAyODQuODUwNiBaIE0gMTMuNzk0OTIsMTcwLjk3NDYxIEMgNi4xNzYyODAxLDE3MC45NzQ4MiAyLjEwMDkxOWUtNCwxNzcuMTUwODkgOS4xODk5MjFlLTgsMTg0Ljc2OTUzIC04LjY5OTA4MWUtNCwxOTIuMzg4OTMgNi4xNzU1MjAxLDE5OC41NjYxOSAxMy43OTQ5MiwxOTguNTY2NCBIIDE5My4zOTg4OCBWIDE3MC45NzQ2MSBaIE0gMjg0LjMwNzgsMjI3LjU2NjQgaCA2OC4zMDc0NCBjIDcuNjE4NjQsLTIuMWUtNCAxMy43OTQ3MSwtNi4xNzYyOCAxMy43OTQ5MiwtMTMuNzk0OTIgLTIuMWUtNCwtNy42MTg2NCAtNi4xNzYyOCwtMTMuNzk0NzEgLTEzLjc5NDkyLC0xMy43OTQ5MiBoIC02NS45MjE3OCB6IG0gLTIzNi4wNTU4NCwxLjY5NzI3IGMgLTcuNjE4NjQsMmUtNCAtMTMuNzk0NzIsNi4xNzYyOCAtMTMuNzk0OTMsMTMuNzk0OTIgMi4xZS00LDcuNjE4NjQgNi4xNzYyOSwxMy43OTQ3MiAxMy43OTQ5MywxMy43OTQ5MiBIIDE5My4zOTg4OCBWIDIyOS4yNjM2NyBaIE0gMTg5LjUyMTQ5LDAgYyAtMjQuNTc0MTEsMCAtNDkuMTY3MzcsMjAuMDU1MDcgLTU5LjQzNzUsNzUuMzczMDQgaCAzMC41ODAwNyBjIDQuNjE2MzMsLTI0LjE2MjA2IDE1LjM0ODk2LC00Ny41MjE0OCAyNy44NTM1MiwtNDcuNTIxNDggMTIuMTU4OCwwIDM5LjQ1ODk4LDU3LjQ1MDQ0IDM5LjQ1ODk4LDE2MC40MTQwNiAwLDY5LjkxNTEzIC0xOS41NzgwOSwxNTIuMTE1MjQgLTQxLjE3MTg3LDE1Mi4xMTUyMyAtMTUuMjY4ODEsMmUtNSAtMjEuMjE2NjgsLTI4LjMzMzU2IC0yNS40NDMzNiwtNDYuNzE4NzQgbCAtMzAuNDE0MDYsLTAuMDY4NCBjIDQuMjIwNzQsMjAuNTQwODcgMTYuOTA3NjgsNzQuMjI0NiA1Ny43MTI4OSw3NC4yMjQ2IDUzLjQzNjcyLDAgNjguOTEyMTEsLTExMS45OTMwNSA2OC45MTIxMSwtMTgwLjQ2Mjg5IEMgMjU3LjU3MjI3LDkzLjgwMDc2IDIzNi41ODM0LDAgMTg5LjUyMTQ5LDAgWiIgc3R5bGU9ImNvbG9yOiMwMDAwMDA7b3BhY2l0eToxO2ZpbGw6IzQyODVmNDtmaWxsLW9wYWNpdHk6MTtzdHJva2UtbGluZWNhcDpyb3VuZDstaW5rc2NhcGUtc3Ryb2tlOm5vbmUiLz4mI3hhOzwvc3ZnPg==;imageBackground=none;rotation=90;" vertex="1" parent="1">
                    <mxGeometry x="558" y="737" width="58" height="58" as="geometry"/>
                </mxCell>
                <mxCell id="57" value="" style="sketch=0;html=1;verticalAlign=top;labelPosition=center;verticalLabelPosition=bottom;align=center;spacingTop=-6;fontSize=11;fontStyle=1;fontColor=#999999;shape=image;aspect=fixed;imageAspect=0;image=data:image/svg+xml,PHN2ZyB4bWxucz0iaHR0cDovL3d3dy53My5vcmcvMjAwMC9zdmciIGhlaWdodD0iMzY3LjgxODMyODg1NzQyMTkiIHZpZXdCb3g9IjcuMTA1NDI3MzU3NjAxMDAyZS0xNSAwIDM2Ni40MTAxODY3Njc1NzgxIDM2Ny44MTgzMjg4NTc0MjE5IiBwcmVzZXJ2ZUFzcGVjdFJhdGlvPSJ4TWlkWU1pZCBtZWV0IiB3aWR0aD0iMzY2LjQxMDE5Njc2NzU3OTEiIHZlcnNpb249IjEuMSIgaWQ9InN2Zzk4NyIgem9vbUFuZFBhbj0ibWFnbmlmeSI+JiN4YTsgIDxwYXRoIGQ9Im0gNDguMjUxOTYsMTExLjUzOTA2IGMgLTcuNjE4NjQsMmUtNCAtMTMuNzk0NzIsNi4xNzYyOCAtMTMuNzk0OTMsMTMuNzk0OTIgMi4xZS00LDcuNjE4NjQgNi4xNzYyOSwxMy43OTQ3MiAxMy43OTQ5MywxMy43OTQ5MiBoIDE0NS4xNDY5MiB2IC0yNy41ODk4NCB6IG0gMjM4LjYwODU5LDU3LjQ1MTE3IGggNjUuNzU0NjkgYyA3LjYxODY0LC0yLjFlLTQgMTMuNzk0NzEsLTYuMTc2MjggMTMuNzk0OTIsLTEzLjc5NDkyIC0yLjFlLTQsLTcuNjE4NjQgLTYuMTc2MjgsLTEzLjc5NDcxIC0xMy43OTQ5MiwtMTMuNzk0OTIgSCAyODQuODUwNiBaIE0gMTMuNzk0OTIsMTcwLjk3NDYxIEMgNi4xNzYyODAxLDE3MC45NzQ4MiAyLjEwMDkxOWUtNCwxNzcuMTUwODkgOS4xODk5MjFlLTgsMTg0Ljc2OTUzIC04LjY5OTA4MWUtNCwxOTIuMzg4OTMgNi4xNzU1MjAxLDE5OC41NjYxOSAxMy43OTQ5MiwxOTguNTY2NCBIIDE5My4zOTg4OCBWIDE3MC45NzQ2MSBaIE0gMjg0LjMwNzgsMjI3LjU2NjQgaCA2OC4zMDc0NCBjIDcuNjE4NjQsLTIuMWUtNCAxMy43OTQ3MSwtNi4xNzYyOCAxMy43OTQ5MiwtMTMuNzk0OTIgLTIuMWUtNCwtNy42MTg2NCAtNi4xNzYyOCwtMTMuNzk0NzEgLTEzLjc5NDkyLC0xMy43OTQ5MiBoIC02NS45MjE3OCB6IG0gLTIzNi4wNTU4NCwxLjY5NzI3IGMgLTcuNjE4NjQsMmUtNCAtMTMuNzk0NzIsNi4xNzYyOCAtMTMuNzk0OTMsMTMuNzk0OTIgMi4xZS00LDcuNjE4NjQgNi4xNzYyOSwxMy43OTQ3MiAxMy43OTQ5MywxMy43OTQ5MiBIIDE5My4zOTg4OCBWIDIyOS4yNjM2NyBaIE0gMTg5LjUyMTQ5LDAgYyAtMjQuNTc0MTEsMCAtNDkuMTY3MzcsMjAuMDU1MDcgLTU5LjQzNzUsNzUuMzczMDQgaCAzMC41ODAwNyBjIDQuNjE2MzMsLTI0LjE2MjA2IDE1LjM0ODk2LC00Ny41MjE0OCAyNy44NTM1MiwtNDcuNTIxNDggMTIuMTU4OCwwIDM5LjQ1ODk4LDU3LjQ1MDQ0IDM5LjQ1ODk4LDE2MC40MTQwNiAwLDY5LjkxNTEzIC0xOS41NzgwOSwxNTIuMTE1MjQgLTQxLjE3MTg3LDE1Mi4xMTUyMyAtMTUuMjY4ODEsMmUtNSAtMjEuMjE2NjgsLTI4LjMzMzU2IC0yNS40NDMzNiwtNDYuNzE4NzQgbCAtMzAuNDE0MDYsLTAuMDY4NCBjIDQuMjIwNzQsMjAuNTQwODcgMTYuOTA3NjgsNzQuMjI0NiA1Ny43MTI4OSw3NC4yMjQ2IDUzLjQzNjcyLDAgNjguOTEyMTEsLTExMS45OTMwNSA2OC45MTIxMSwtMTgwLjQ2Mjg5IEMgMjU3LjU3MjI3LDkzLjgwMDc2IDIzNi41ODM0LDAgMTg5LjUyMTQ5LDAgWiIgc3R5bGU9ImNvbG9yOiMwMDAwMDA7b3BhY2l0eToxO2ZpbGw6IzQyODVmNDtmaWxsLW9wYWNpdHk6MTtzdHJva2UtbGluZWNhcDpyb3VuZDstaW5rc2NhcGUtc3Ryb2tlOm5vbmUiLz4mI3hhOzwvc3ZnPg==;imageBackground=none;rotation=90;" vertex="1" parent="1">
                    <mxGeometry x="558" y="894" width="58" height="58" as="geometry"/>
                </mxCell>
                <mxCell id="58" value="Api gateway" style="sketch=0;outlineConnect=0;fontColor=#000000;fillColor=#fa6800;strokeColor=#C73500;dashed=0;verticalLabelPosition=bottom;verticalAlign=top;align=center;html=1;fontSize=12;fontStyle=0;aspect=fixed;pointerEvents=1;shape=mxgraph.aws4.endpoint;fontFamily=Helvetica;labelBackgroundColor=default;" vertex="1" parent="1">
                    <mxGeometry x="239" y="512.96" width="59" height="59" as="geometry"/>
                </mxCell>
                <mxCell id="59" value="&lt;font style=&quot;font-size: 20px;&quot;&gt;Intra microservices comunication is done directly without gateway&lt;/font&gt;" style="text;html=1;align=center;verticalAlign=middle;resizable=0;points=[];autosize=1;strokeColor=none;fillColor=none;fontFamily=Helvetica;fontSize=16;fontColor=default;labelBackgroundColor=default;" vertex="1" parent="1">
                    <mxGeometry x="17" y="53" width="597" height="36" as="geometry"/>
                </mxCell>
                <mxCell id="60" value="" style="sketch=0;html=1;verticalAlign=top;labelPosition=center;verticalLabelPosition=bottom;align=center;spacingTop=-6;fontSize=11;fontStyle=1;fontColor=#999999;shape=image;aspect=fixed;imageAspect=0;image=data:image/svg+xml,PHN2ZyB4bWxucz0iaHR0cDovL3d3dy53My5vcmcvMjAwMC9zdmciIGhlaWdodD0iMzY3LjgxODMyODg1NzQyMTkiIHZpZXdCb3g9IjcuMTA1NDI3MzU3NjAxMDAyZS0xNSAwIDM2Ni40MTAxODY3Njc1NzgxIDM2Ny44MTgzMjg4NTc0MjE5IiBwcmVzZXJ2ZUFzcGVjdFJhdGlvPSJ4TWlkWU1pZCBtZWV0IiB3aWR0aD0iMzY2LjQxMDE5Njc2NzU3OTEiIHZlcnNpb249IjEuMSIgaWQ9InN2Zzk4NyIgem9vbUFuZFBhbj0ibWFnbmlmeSI+JiN4YTsgIDxwYXRoIGQ9Im0gNDguMjUxOTYsMTExLjUzOTA2IGMgLTcuNjE4NjQsMmUtNCAtMTMuNzk0NzIsNi4xNzYyOCAtMTMuNzk0OTMsMTMuNzk0OTIgMi4xZS00LDcuNjE4NjQgNi4xNzYyOSwxMy43OTQ3MiAxMy43OTQ5MywxMy43OTQ5MiBoIDE0NS4xNDY5MiB2IC0yNy41ODk4NCB6IG0gMjM4LjYwODU5LDU3LjQ1MTE3IGggNjUuNzU0NjkgYyA3LjYxODY0LC0yLjFlLTQgMTMuNzk0NzEsLTYuMTc2MjggMTMuNzk0OTIsLTEzLjc5NDkyIC0yLjFlLTQsLTcuNjE4NjQgLTYuMTc2MjgsLTEzLjc5NDcxIC0xMy43OTQ5MiwtMTMuNzk0OTIgSCAyODQuODUwNiBaIE0gMTMuNzk0OTIsMTcwLjk3NDYxIEMgNi4xNzYyODAxLDE3MC45NzQ4MiAyLjEwMDkxOWUtNCwxNzcuMTUwODkgOS4xODk5MjFlLTgsMTg0Ljc2OTUzIC04LjY5OTA4MWUtNCwxOTIuMzg4OTMgNi4xNzU1MjAxLDE5OC41NjYxOSAxMy43OTQ5MiwxOTguNTY2NCBIIDE5My4zOTg4OCBWIDE3MC45NzQ2MSBaIE0gMjg0LjMwNzgsMjI3LjU2NjQgaCA2OC4zMDc0NCBjIDcuNjE4NjQsLTIuMWUtNCAxMy43OTQ3MSwtNi4xNzYyOCAxMy43OTQ5MiwtMTMuNzk0OTIgLTIuMWUtNCwtNy42MTg2NCAtNi4xNzYyOCwtMTMuNzk0NzEgLTEzLjc5NDkyLC0xMy43OTQ5MiBoIC02NS45MjE3OCB6IG0gLTIzNi4wNTU4NCwxLjY5NzI3IGMgLTcuNjE4NjQsMmUtNCAtMTMuNzk0NzIsNi4xNzYyOCAtMTMuNzk0OTMsMTMuNzk0OTIgMi4xZS00LDcuNjE4NjQgNi4xNzYyOSwxMy43OTQ3MiAxMy43OTQ5MywxMy43OTQ5MiBIIDE5My4zOTg4OCBWIDIyOS4yNjM2NyBaIE0gMTg5LjUyMTQ5LDAgYyAtMjQuNTc0MTEsMCAtNDkuMTY3MzcsMjAuMDU1MDcgLTU5LjQzNzUsNzUuMzczMDQgaCAzMC41ODAwNyBjIDQuNjE2MzMsLTI0LjE2MjA2IDE1LjM0ODk2LC00Ny41MjE0OCAyNy44NTM1MiwtNDcuNTIxNDggMTIuMTU4OCwwIDM5LjQ1ODk4LDU3LjQ1MDQ0IDM5LjQ1ODk4LDE2MC40MTQwNiAwLDY5LjkxNTEzIC0xOS41NzgwOSwxNTIuMTE1MjQgLTQxLjE3MTg3LDE1Mi4xMTUyMyAtMTUuMjY4ODEsMmUtNSAtMjEuMjE2NjgsLTI4LjMzMzU2IC0yNS40NDMzNiwtNDYuNzE4NzQgbCAtMzAuNDE0MDYsLTAuMDY4NCBjIDQuMjIwNzQsMjAuNTQwODcgMTYuOTA3NjgsNzQuMjI0NiA1Ny43MTI4OSw3NC4yMjQ2IDUzLjQzNjcyLDAgNjguOTEyMTEsLTExMS45OTMwNSA2OC45MTIxMSwtMTgwLjQ2Mjg5IEMgMjU3LjU3MjI3LDkzLjgwMDc2IDIzNi41ODM0LDAgMTg5LjUyMTQ5LDAgWiIgc3R5bGU9ImNvbG9yOiMwMDAwMDA7b3BhY2l0eToxO2ZpbGw6IzQyODVmNDtmaWxsLW9wYWNpdHk6MTtzdHJva2UtbGluZWNhcDpyb3VuZDstaW5rc2NhcGUtc3Ryb2tlOm5vbmUiLz4mI3hhOzwvc3ZnPg==;imageBackground=none;rotation=90;" vertex="1" parent="1">
                    <mxGeometry x="558" y="585" width="58" height="58" as="geometry"/>
                </mxCell>
                <mxCell id="63" value="" style="endArrow=blockThin;html=1;strokeColor=light-dark(#475E75,#66FFFF);bendable=1;rounded=0;endFill=1;endSize=4;edgeStyle=entityRelationEdgeStyle;startArrow=blockThin;startFill=1;startSize=4;jumpStyle=none;jumpSize=0;targetPerimeterSpacing=15;dashed=1;strokeWidth=1.5;align=center;verticalAlign=middle;fontFamily=Helvetica;fontSize=16;fontColor=default;labelBackgroundColor=default;" edge="1" parent="1">
                    <mxGeometry width="50" height="50" relative="1" as="geometry">
                        <mxPoint x="101" y="575" as="sourcePoint"/>
                        <mxPoint x="221" y="575" as="targetPoint"/>
                    </mxGeometry>
                </mxCell>
                <mxCell id="64" value="" style="endArrow=blockThin;html=1;strokeColor=light-dark(#475E75,#66FFFF);bendable=1;rounded=0;endFill=1;endSize=4;edgeStyle=entityRelationEdgeStyle;startArrow=blockThin;startFill=1;startSize=4;jumpStyle=none;jumpSize=0;targetPerimeterSpacing=15;dashed=1;strokeWidth=1.5;align=center;verticalAlign=middle;fontFamily=Helvetica;fontSize=16;fontColor=default;labelBackgroundColor=default;entryX=0.016;entryY=0.081;entryDx=0;entryDy=0;entryPerimeter=0;" edge="1" parent="1" target="17">
                    <mxGeometry width="50" height="50" relative="1" as="geometry">
                        <mxPoint x="306" y="569.47" as="sourcePoint"/>
                        <mxPoint x="426" y="569.47" as="targetPoint"/>
                    </mxGeometry>
                </mxCell>
                <mxCell id="66" value="&lt;font style=&quot;color: light-dark(rgb(0, 0, 0), rgb(102, 255, 255));&quot;&gt;Web Socket&lt;/font&gt;" style="text;html=1;align=center;verticalAlign=middle;resizable=0;points=[];autosize=1;strokeColor=none;fillColor=none;fontFamily=Helvetica;fontSize=11;fontColor=default;labelBackgroundColor=default;" vertex="1" parent="1">
                    <mxGeometry x="123" y="571" width="77" height="25" as="geometry"/>
                </mxCell>
                <mxCell id="69" value="&lt;font style=&quot;color: light-dark(rgb(0, 0, 0), rgb(102, 255, 255));&quot;&gt;Web Socket&lt;/font&gt;" style="text;html=1;align=center;verticalAlign=middle;resizable=0;points=[];autosize=1;strokeColor=none;fillColor=none;fontFamily=Helvetica;fontSize=11;fontColor=default;labelBackgroundColor=default;rotation=75;" vertex="1" parent="1">
                    <mxGeometry x="312" y="664.48" width="77" height="25" as="geometry"/>
                </mxCell>
                <mxCell id="75" value="5001" style="text;html=1;align=center;verticalAlign=middle;whiteSpace=wrap;rounded=0;fontFamily=Helvetica;fontSize=11;fontColor=default;labelBackgroundColor=default;" vertex="1" parent="1">
                    <mxGeometry x="493" y="375" width="29" height="16" as="geometry"/>
                </mxCell>
                <mxCell id="76" value="5002&lt;span style=&quot;font-family: monospace; font-size: 0px; text-align: start; text-wrap-mode: nowrap; background-color: rgb(27, 29, 30);&quot;&gt;%3CmxGraphModel%3E%3Croot%3E%3CmxCell%20id%3D%220%22%2F%3E%3CmxCell%20id%3D%221%22%20parent%3D%220%22%2F%3E%3CmxCell%20id%3D%222%22%20value%3D%225001%22%20style%3D%22text%3Bhtml%3D1%3Balign%3Dcenter%3BverticalAlign%3Dmiddle%3BwhiteSpace%3Dwrap%3Brounded%3D0%3BfontFamily%3DHelvetica%3BfontSize%3D11%3BfontColor%3Ddefault%3BlabelBackgroundColor%3Ddefault%3B%22%20vertex%3D%221%22%20parent%3D%221%22%3E%3CmxGeometry%20x%3D%22491%22%20y%3D%22109%22%20width%3D%2229%22%20height%3D%2216%22%20as%3D%22geometry%22%2F%3E%3C%2FmxCell%3E%3C%2Froot%3E%3C%2FmxGraphModel%3E&lt;/span&gt;" style="text;html=1;align=center;verticalAlign=middle;whiteSpace=wrap;rounded=0;fontFamily=Helvetica;fontSize=11;fontColor=default;labelBackgroundColor=default;" vertex="1" parent="1">
                    <mxGeometry x="488.5" y="522" width="29" height="16" as="geometry"/>
                </mxCell>
                <mxCell id="77" value="5003" style="text;html=1;align=center;verticalAlign=middle;whiteSpace=wrap;rounded=0;fontFamily=Helvetica;fontSize=11;fontColor=default;labelBackgroundColor=default;" vertex="1" parent="1">
                    <mxGeometry x="488.5" y="668.98" width="29" height="16" as="geometry"/>
                </mxCell>
                <mxCell id="78" value="5004" style="text;html=1;align=center;verticalAlign=middle;whiteSpace=wrap;rounded=0;fontFamily=Helvetica;fontSize=11;fontColor=default;labelBackgroundColor=default;" vertex="1" parent="1">
                    <mxGeometry x="498" y="824" width="29" height="16" as="geometry"/>
                </mxCell>
                <mxCell id="80" value="5005" style="text;html=1;align=center;verticalAlign=middle;whiteSpace=wrap;rounded=0;fontFamily=Helvetica;fontSize=11;fontColor=default;labelBackgroundColor=default;" vertex="1" parent="1">
                    <mxGeometry x="451" y="972" width="29" height="16" as="geometry"/>
                </mxCell>
                <mxCell id="81" value="&lt;span style=&quot;font-size: 29px;&quot;&gt;TRIS&lt;/span&gt;" style="rounded=1;whiteSpace=wrap;html=1;" vertex="1" parent="1">
                    <mxGeometry x="480" y="1118" width="226" height="60" as="geometry"/>
                </mxCell>
                <mxCell id="82" value="" style="sketch=0;html=1;verticalAlign=top;labelPosition=center;verticalLabelPosition=bottom;align=center;spacingTop=-6;fontSize=11;fontStyle=1;fontColor=#999999;shape=image;aspect=fixed;imageAspect=0;image=data:image/svg+xml,PHN2ZyB4bWxucz0iaHR0cDovL3d3dy53My5vcmcvMjAwMC9zdmciIGhlaWdodD0iMzY3LjgxODMyODg1NzQyMTkiIHZpZXdCb3g9IjcuMTA1NDI3MzU3NjAxMDAyZS0xNSAwIDM2Ni40MTAxODY3Njc1NzgxIDM2Ny44MTgzMjg4NTc0MjE5IiBwcmVzZXJ2ZUFzcGVjdFJhdGlvPSJ4TWlkWU1pZCBtZWV0IiB3aWR0aD0iMzY2LjQxMDE5Njc2NzU3OTEiIHZlcnNpb249IjEuMSIgaWQ9InN2Zzk4NyIgem9vbUFuZFBhbj0ibWFnbmlmeSI+JiN4YTsgIDxwYXRoIGQ9Im0gNDguMjUxOTYsMTExLjUzOTA2IGMgLTcuNjE4NjQsMmUtNCAtMTMuNzk0NzIsNi4xNzYyOCAtMTMuNzk0OTMsMTMuNzk0OTIgMi4xZS00LDcuNjE4NjQgNi4xNzYyOSwxMy43OTQ3MiAxMy43OTQ5MywxMy43OTQ5MiBoIDE0NS4xNDY5MiB2IC0yNy41ODk4NCB6IG0gMjM4LjYwODU5LDU3LjQ1MTE3IGggNjUuNzU0NjkgYyA3LjYxODY0LC0yLjFlLTQgMTMuNzk0NzEsLTYuMTc2MjggMTMuNzk0OTIsLTEzLjc5NDkyIC0yLjFlLTQsLTcuNjE4NjQgLTYuMTc2MjgsLTEzLjc5NDcxIC0xMy43OTQ5MiwtMTMuNzk0OTIgSCAyODQuODUwNiBaIE0gMTMuNzk0OTIsMTcwLjk3NDYxIEMgNi4xNzYyODAxLDE3MC45NzQ4MiAyLjEwMDkxOWUtNCwxNzcuMTUwODkgOS4xODk5MjFlLTgsMTg0Ljc2OTUzIC04LjY5OTA4MWUtNCwxOTIuMzg4OTMgNi4xNzU1MjAxLDE5OC41NjYxOSAxMy43OTQ5MiwxOTguNTY2NCBIIDE5My4zOTg4OCBWIDE3MC45NzQ2MSBaIE0gMjg0LjMwNzgsMjI3LjU2NjQgaCA2OC4zMDc0NCBjIDcuNjE4NjQsLTIuMWUtNCAxMy43OTQ3MSwtNi4xNzYyOCAxMy43OTQ5MiwtMTMuNzk0OTIgLTIuMWUtNCwtNy42MTg2NCAtNi4xNzYyOCwtMTMuNzk0NzEgLTEzLjc5NDkyLC0xMy43OTQ5MiBoIC02NS45MjE3OCB6IG0gLTIzNi4wNTU4NCwxLjY5NzI3IGMgLTcuNjE4NjQsMmUtNCAtMTMuNzk0NzIsNi4xNzYyOCAtMTMuNzk0OTMsMTMuNzk0OTIgMi4xZS00LDcuNjE4NjQgNi4xNzYyOSwxMy43OTQ3MiAxMy43OTQ5MywxMy43OTQ5MiBIIDE5My4zOTg4OCBWIDIyOS4yNjM2NyBaIE0gMTg5LjUyMTQ5LDAgYyAtMjQuNTc0MTEsMCAtNDkuMTY3MzcsMjAuMDU1MDcgLTU5LjQzNzUsNzUuMzczMDQgaCAzMC41ODAwNyBjIDQuNjE2MzMsLTI0LjE2MjA2IDE1LjM0ODk2LC00Ny41MjE0OCAyNy44NTM1MiwtNDcuNTIxNDggMTIuMTU4OCwwIDM5LjQ1ODk4LDU3LjQ1MDQ0IDM5LjQ1ODk4LDE2MC40MTQwNiAwLDY5LjkxNTEzIC0xOS41NzgwOSwxNTIuMTE1MjQgLTQxLjE3MTg3LDE1Mi4xMTUyMyAtMTUuMjY4ODEsMmUtNSAtMjEuMjE2NjgsLTI4LjMzMzU2IC0yNS40NDMzNiwtNDYuNzE4NzQgbCAtMzAuNDE0MDYsLTAuMDY4NCBjIDQuMjIwNzQsMjAuNTQwODcgMTYuOTA3NjgsNzQuMjI0NiA1Ny43MTI4OSw3NC4yMjQ2IDUzLjQzNjcyLDAgNjguOTEyMTEsLTExMS45OTMwNSA2OC45MTIxMSwtMTgwLjQ2Mjg5IEMgMjU3LjU3MjI3LDkzLjgwMDc2IDIzNi41ODM0LDAgMTg5LjUyMTQ5LDAgWiIgc3R5bGU9ImNvbG9yOiMwMDAwMDA7b3BhY2l0eToxO2ZpbGw6IzQyODVmNDtmaWxsLW9wYWNpdHk6MTtzdHJva2UtbGluZWNhcDpyb3VuZDstaW5rc2NhcGUtc3Ryb2tlOm5vbmUiLz4mI3hhOzwvc3ZnPg==;imageBackground=none;rotation=90;" vertex="1" parent="1">
                    <mxGeometry x="558" y="1040" width="58" height="58" as="geometry"/>
                </mxCell>
                <mxCell id="83" value="" style="endArrow=classic;startArrow=classic;html=1;exitX=1;exitY=0.5;exitDx=0;exitDy=0;entryX=0;entryY=0.5;entryDx=0;entryDy=0;entryPerimeter=0;" edge="1" parent="1">
                    <mxGeometry width="50" height="50" relative="1" as="geometry">
                        <mxPoint x="706" y="1147" as="sourcePoint"/>
                        <mxPoint x="940" y="1149" as="targetPoint"/>
                    </mxGeometry>
                </mxCell>
                <mxCell id="84" value="tris_db" style="html=1;verticalLabelPosition=bottom;align=center;labelBackgroundColor=#ffffff;verticalAlign=top;strokeWidth=2;strokeColor=#0080F0;shadow=0;dashed=0;shape=mxgraph.ios7.icons.data;fontFamily=Helvetica;fontSize=16;fontColor=default;aspect=fixed;" vertex="1" parent="1">
                    <mxGeometry x="960" y="1082" width="61" height="73.96" as="geometry"/>
                </mxCell>
                <mxCell id="85" value="" style="endArrow=none;html=1;rounded=1;strokeColor=default;strokeWidth=3.937;align=center;verticalAlign=middle;fontFamily=Helvetica;fontSize=16;fontColor=default;labelBackgroundColor=default;entryX=0;entryY=0.5;entryDx=0;entryDy=0;exitX=-0.007;exitY=0.998;exitDx=0;exitDy=0;exitPerimeter=0;" edge="1" parent="1">
                    <mxGeometry width="50" height="50" relative="1" as="geometry">
                        <mxPoint x="393" y="1150" as="sourcePoint"/>
                        <mxPoint x="480" y="1150" as="targetPoint"/>
                    </mxGeometry>
                </mxCell>
                <mxCell id="87" value="" style="endArrow=blockThin;html=1;strokeColor=light-dark(#475E75,#66FFFF);bendable=1;rounded=0;endFill=1;endSize=4;edgeStyle=entityRelationEdgeStyle;startArrow=blockThin;startFill=1;startSize=4;jumpStyle=none;jumpSize=0;targetPerimeterSpacing=15;dashed=1;strokeWidth=1.5;align=center;verticalAlign=middle;fontFamily=Helvetica;fontSize=16;fontColor=default;labelBackgroundColor=default;entryX=0.01;entryY=0.099;entryDx=0;entryDy=0;entryPerimeter=0;" edge="1" parent="1">
                    <mxGeometry width="50" height="50" relative="1" as="geometry">
                        <mxPoint x="321" y="575" as="sourcePoint"/>
                        <mxPoint x="477" y="1127" as="targetPoint"/>
                    </mxGeometry>
                </mxCell>
                <mxCell id="88" value="5006" style="text;html=1;align=center;verticalAlign=middle;whiteSpace=wrap;rounded=0;fontFamily=Helvetica;fontSize=11;fontColor=default;labelBackgroundColor=default;" vertex="1" parent="1">
                    <mxGeometry x="451" y="1132" width="29" height="16" as="geometry"/>
                </mxCell>
                <mxCell id="91" value="" style="sketch=0;html=1;verticalAlign=top;labelPosition=center;verticalLabelPosition=bottom;align=center;spacingTop=-6;fontSize=11;fontStyle=1;fontColor=#999999;shape=image;aspect=fixed;imageAspect=0;image=data:image/svg+xml,PHN2ZyB4bWxucz0iaHR0cDovL3d3dy53My5vcmcvMjAwMC9zdmciIGhlaWdodD0iMzY3LjgxODMyODg1NzQyMTkiIHZpZXdCb3g9IjcuMTA1NDI3MzU3NjAxMDAyZS0xNSAwIDM2Ni40MTAxODY3Njc1NzgxIDM2Ny44MTgzMjg4NTc0MjE5IiBwcmVzZXJ2ZUFzcGVjdFJhdGlvPSJ4TWlkWU1pZCBtZWV0IiB3aWR0aD0iMzY2LjQxMDE5Njc2NzU3OTEiIHZlcnNpb249IjEuMSIgaWQ9InN2Zzk4NyIgem9vbUFuZFBhbj0ibWFnbmlmeSI+JiN4YTsgIDxwYXRoIGQ9Im0gNDguMjUxOTYsMTExLjUzOTA2IGMgLTcuNjE4NjQsMmUtNCAtMTMuNzk0NzIsNi4xNzYyOCAtMTMuNzk0OTMsMTMuNzk0OTIgMi4xZS00LDcuNjE4NjQgNi4xNzYyOSwxMy43OTQ3MiAxMy43OTQ5MywxMy43OTQ5MiBoIDE0NS4xNDY5MiB2IC0yNy41ODk4NCB6IG0gMjM4LjYwODU5LDU3LjQ1MTE3IGggNjUuNzU0NjkgYyA3LjYxODY0LC0yLjFlLTQgMTMuNzk0NzEsLTYuMTc2MjggMTMuNzk0OTIsLTEzLjc5NDkyIC0yLjFlLTQsLTcuNjE4NjQgLTYuMTc2MjgsLTEzLjc5NDcxIC0xMy43OTQ5MiwtMTMuNzk0OTIgSCAyODQuODUwNiBaIE0gMTMuNzk0OTIsMTcwLjk3NDYxIEMgNi4xNzYyODAxLDE3MC45NzQ4MiAyLjEwMDkxOWUtNCwxNzcuMTUwODkgOS4xODk5MjFlLTgsMTg0Ljc2OTUzIC04LjY5OTA4MWUtNCwxOTIuMzg4OTMgNi4xNzU1MjAxLDE5OC41NjYxOSAxMy43OTQ5MiwxOTguNTY2NCBIIDE5My4zOTg4OCBWIDE3MC45NzQ2MSBaIE0gMjg0LjMwNzgsMjI3LjU2NjQgaCA2OC4zMDc0NCBjIDcuNjE4NjQsLTIuMWUtNCAxMy43OTQ3MSwtNi4xNzYyOCAxMy43OTQ5MiwtMTMuNzk0OTIgLTIuMWUtNCwtNy42MTg2NCAtNi4xNzYyOCwtMTMuNzk0NzEgLTEzLjc5NDkyLC0xMy43OTQ5MiBoIC02NS45MjE3OCB6IG0gLTIzNi4wNTU4NCwxLjY5NzI3IGMgLTcuNjE4NjQsMmUtNCAtMTMuNzk0NzIsNi4xNzYyOCAtMTMuNzk0OTMsMTMuNzk0OTIgMi4xZS00LDcuNjE4NjQgNi4xNzYyOSwxMy43OTQ3MiAxMy43OTQ5MywxMy43OTQ5MiBIIDE5My4zOTg4OCBWIDIyOS4yNjM2NyBaIE0gMTg5LjUyMTQ5LDAgYyAtMjQuNTc0MTEsMCAtNDkuMTY3MzcsMjAuMDU1MDcgLTU5LjQzNzUsNzUuMzczMDQgaCAzMC41ODAwNyBjIDQuNjE2MzMsLTI0LjE2MjA2IDE1LjM0ODk2LC00Ny41MjE0OCAyNy44NTM1MiwtNDcuNTIxNDggMTIuMTU4OCwwIDM5LjQ1ODk4LDU3LjQ1MDQ0IDM5LjQ1ODk4LDE2MC40MTQwNiAwLDY5LjkxNTEzIC0xOS41NzgwOSwxNTIuMTE1MjQgLTQxLjE3MTg3LDE1Mi4xMTUyMyAtMTUuMjY4ODEsMmUtNSAtMjEuMjE2NjgsLTI4LjMzMzU2IC0yNS40NDMzNiwtNDYuNzE4NzQgbCAtMzAuNDE0MDYsLTAuMDY4NCBjIDQuMjIwNzQsMjAuNTQwODcgMTYuOTA3NjgsNzQuMjI0NiA1Ny43MTI4OSw3NC4yMjQ2IDUzLjQzNjcyLDAgNjguOTEyMTEsLTExMS45OTMwNSA2OC45MTIxMSwtMTgwLjQ2Mjg5IEMgMjU3LjU3MjI3LDkzLjgwMDc2IDIzNi41ODM0LDAgMTg5LjUyMTQ5LDAgWiIgc3R5bGU9ImNvbG9yOiMwMDAwMDA7b3BhY2l0eToxO2ZpbGw6IzQyODVmNDtmaWxsLW9wYWNpdHk6MTtzdHJva2UtbGluZWNhcDpyb3VuZDstaW5rc2NhcGUtc3Ryb2tlOm5vbmUiLz4mI3hhOzwvc3ZnPg==;imageBackground=none;rotation=90;" vertex="1" parent="1">
                    <mxGeometry x="560" y="438" width="58" height="58" as="geometry"/>
                </mxCell>
                <mxCell id="93" value="" style="endArrow=blockThin;html=1;strokeColor=light-dark(#475E75,#66FFFF);bendable=1;rounded=0;endFill=1;endSize=4;edgeStyle=entityRelationEdgeStyle;startArrow=blockThin;startFill=1;startSize=4;jumpStyle=none;jumpSize=0;targetPerimeterSpacing=15;dashed=1;strokeWidth=1.5;align=center;verticalAlign=middle;fontFamily=Helvetica;fontSize=16;fontColor=default;labelBackgroundColor=default;entryX=0;entryY=0;entryDx=0;entryDy=0;" edge="1" parent="1" target="16">
                    <mxGeometry width="50" height="50" relative="1" as="geometry">
                        <mxPoint x="312" y="555" as="sourcePoint"/>
                        <mxPoint x="536" y="803.53" as="targetPoint"/>
                    </mxGeometry>
                </mxCell>
            </root>
        </mxGraphModel>
    </diagram>
</mxfile>